<svg width="60" height="60" viewBox="0 0 60 60" fill="none" xmlns="http://www.w3.org/2000/svg">
<path d="M30 5C16.2 5 5 16.2 5 30C5 43.8 16.2 55 30 55C43.8 55 55 43.8 55 30C55 16.2 43.8 5 30 5ZM38.75 31.875H25.775L30.075 36.175C30.8 36.9 30.8 38.1 30.075 38.825C29.7 39.2 29.225 39.375 28.75 39.375C28.275 39.375 27.8 39.2 27.425 38.825L19.925 31.325C19.5763 30.9722 19.3807 30.4961 19.3807 30C19.3807 29.5039 19.5763 29.0278 19.925 28.675L27.425 21.175C28.15 20.45 29.35 20.45 30.075 21.175C30.8 21.9 30.8 23.1 30.075 23.825L25.775 28.125H38.75C39.775 28.125 40.625 28.975 40.625 30C40.625 31.025 39.775 31.875 38.75 31.875Z" fill="#E24646"/>
</svg>
