<svg width="60" height="60" viewBox="0 0 60 60" fill="none" xmlns="http://www.w3.org/2000/svg">
<path d="M30 5C16.2 5 5 16.2 5 30C5 43.8 16.2 55 30 55C43.8 55 55 43.8 55 30C55 16.2 43.8 5 30 5ZM40.075 31.325L32.575 38.825C32.2 39.2 31.725 39.375 31.25 39.375C30.775 39.375 30.3 39.2 29.925 38.825C29.5763 38.4722 29.3807 37.9961 29.3807 37.5C29.3807 37.0039 29.5763 36.5278 29.925 36.175L34.225 31.875H21.25C20.225 31.875 19.375 31.025 19.375 30C19.375 28.975 20.225 28.125 21.25 28.125H34.225L29.925 23.825C29.5763 23.4722 29.3807 22.9961 29.3807 22.5C29.3807 22.0039 29.5763 21.5278 29.925 21.175C30.65 20.45 31.85 20.45 32.575 21.175L40.075 28.675C40.8 29.4 40.8 30.6 40.075 31.325Z" fill="#E24646"/>
</svg>
